<svg xmlns="http://www.w3.org/2000/svg" viewBox="0 0 520 280" font-family="system-ui, -apple-system, sans-serif" font-size="13">
  <!-- Shared Memory box -->
  <rect x="170" y="20" width="180" height="70" rx="8" fill="#e8f0fe" stroke="#4a7cbf" stroke-width="1.5"/>
  <text x="260" y="50" text-anchor="middle" font-weight="600" fill="#1a3a5c">Shared Memory</text>
  <text x="260" y="68" text-anchor="middle" fill="#4a7cbf" font-size="11">(OS-backed)</text>

  <!-- create() label and arrow -->
  <text x="80" y="60" text-anchor="middle" font-size="12" fill="#333">sora(obj)</text>
  <text x="80" y="76" text-anchor="middle" font-size="10" fill="#888">write once</text>
  <line x1="130" y1="55" x2="165" y2="55" stroke="#4a7cbf" stroke-width="1.5" marker-end="url(#arrow)"/>

  <!-- mmap arrows from SHM to daemons -->
  <line x1="210" y1="90" x2="80" y2="170" stroke="#4a7cbf" stroke-width="1.2" marker-end="url(#arrow)"/>
  <line x1="240" y1="90" x2="200" y2="170" stroke="#4a7cbf" stroke-width="1.2" marker-end="url(#arrow)"/>
  <line x1="280" y1="90" x2="320" y2="170" stroke="#4a7cbf" stroke-width="1.2" marker-end="url(#arrow)"/>
  <line x1="310" y1="90" x2="440" y2="170" stroke="#4a7cbf" stroke-width="1.2" marker-end="url(#arrow)"/>

  <!-- mmap label -->
  <text x="145" y="130" text-anchor="middle" fill="#888" font-size="10">mmap</text>
  <text x="375" y="130" text-anchor="middle" fill="#888" font-size="10">mmap</text>

  <!-- Process boxes -->
  <rect x="30" y="175" width="100" height="40" rx="6" fill="#f0f4e8" stroke="#6a9a3a" stroke-width="1.2"/>
  <text x="80" y="200" text-anchor="middle" fill="#3a5c1a" font-size="12">Process 1</text>

  <rect x="150" y="175" width="100" height="40" rx="6" fill="#f0f4e8" stroke="#6a9a3a" stroke-width="1.2"/>
  <text x="200" y="200" text-anchor="middle" fill="#3a5c1a" font-size="12">Process 2</text>

  <rect x="270" y="175" width="100" height="40" rx="6" fill="#f0f4e8" stroke="#6a9a3a" stroke-width="1.2"/>
  <text x="320" y="200" text-anchor="middle" fill="#3a5c1a" font-size="12">Process 3</text>

  <rect x="390" y="175" width="100" height="40" rx="6" fill="#f0f4e8" stroke="#6a9a3a" stroke-width="1.2"/>
  <text x="440" y="200" text-anchor="middle" fill="#3a5c1a" font-size="12">Process 4</text>

  <!-- Subtitle -->
  <text x="260" y="240" text-anchor="middle" fill="#888" font-size="11" font-style="italic">ALTREP wrappers — zero-copy reads</text>
  <text x="260" y="258" text-anchor="middle" fill="#888" font-size="11" font-style="italic">serialize(x) sends only the SHM name (~30 bytes)</text>

  <!-- Arrow marker -->
  <defs>
    <marker id="arrow" viewBox="0 0 10 10" refX="9" refY="5" markerWidth="6" markerHeight="6" orient="auto-start-reverse">
      <path d="M 0 0 L 10 5 L 0 10 z" fill="#4a7cbf"/>
    </marker>
  </defs>
</svg>
